<?xml version="1.0" encoding="utf-8"?>
<!-- Generator: Adobe Illustrator 19.2.1, SVG Export Plug-In . SVG Version: 6.00 Build 0)  -->
<svg version="1.1" id="Layer_1" xmlns="http://www.w3.org/2000/svg" xmlns:xlink="http://www.w3.org/1999/xlink" x="0px" y="0px"
	 viewBox="0 0 250 250" style="enable-background:new 0 0 250 250;" xml:space="preserve">
<style type="text/css">
	.st0{display:none;fill:none;stroke:#D64938;stroke-width:5.3716;stroke-miterlimit:10;}
	.st1{fill:none;}
	.st2{fill:#9B2834;}
</style>
<circle class="st0" cx="-911.1" cy="505.3" r="81.9"/>
<g>
	<path class="st1" d="M125,0C56,0,0,56,0,125s56,125,125,125s125-56,125-125S194,0,125,0z"/>
	<path class="st2" d="M196.2,208.7c-19.2,16.3-44,26.2-71.2,26.2s-52-9.9-71.2-26.2H196.2z"/>
	<path class="st2" d="M133.5,71.3h53.1L125,208.7L63.4,71.3h53.1V53.1H41.9c20.2-23.2,49.9-38,83.1-38s62.9,14.7,83.1,38h-74.6V71.3
		z"/>
	<path class="st2" d="M234.9,125c0,24.5-8,47.2-21.6,65.5h-60.1l60.1-130.9C226.9,77.9,234.9,100.5,234.9,125z"/>
	<path class="st2" d="M96.8,190.5H36.7c-13.6-18.3-21.6-40.9-21.6-65.5c0-24.5,8-47.1,21.6-65.4L96.8,190.5z"/>
</g>
</svg>
